<svg width="20" height="20" viewBox="0 0 20 20" fill="none" xmlns="http://www.w3.org/2000/svg">
<path fill-rule="evenodd" clip-rule="evenodd" d="M18.6486 0H1.35135C0.608108 0 0 0.608108 0 1.35135V18.6486C0 19.3919 0.608108 20 1.35135 20H18.6486C19.3919 20 20 19.3919 20 18.6486V1.35135C20 0.608108 19.3919 0 18.6486 0Z" fill="#A50064"/>
<path d="M13.8379 9.39168C15.4258 9.39168 16.7096 8.1079 16.7096 6.52006C16.7096 4.93222 15.4258 3.64844 13.8379 3.64844C12.2501 3.64844 10.9663 4.93222 10.9663 6.52006C10.9663 8.1079 12.2501 9.39168 13.8379 9.39168ZM13.8379 5.29709C14.5136 5.29709 15.0609 5.84438 15.0609 6.52006C15.0609 7.19573 14.5136 7.74303 13.8379 7.74303C13.1623 7.74303 12.615 7.19573 12.615 6.52006C12.615 5.84438 13.1623 5.29709 13.8379 5.29709Z" fill="white"/>
<path d="M13.8379 10.6348C12.2501 10.6348 10.9663 11.9185 10.9663 13.5064C10.9663 15.0942 12.2501 16.378 13.8379 16.378C15.4258 16.378 16.7096 15.0942 16.7096 13.5064C16.7096 11.9185 15.4258 10.6348 13.8379 10.6348ZM13.8379 14.7294C13.1623 14.7294 12.615 14.1821 12.615 13.5064C12.615 12.8307 13.1623 12.2834 13.8379 12.2834C14.5136 12.2834 15.0609 12.8307 15.0609 13.5064C15.0609 14.1821 14.5136 14.7294 13.8379 14.7294Z" fill="white"/>
<path d="M7.98649 10.6348C7.5 10.6348 7.05405 10.7969 6.69595 11.0672C6.33784 10.7969 5.88514 10.6348 5.40541 10.6348C4.21622 10.6348 3.25 11.601 3.25 12.7902V16.3848H4.89865V12.7699C4.89865 12.4996 5.11486 12.2834 5.38514 12.2834C5.65541 12.2834 5.87162 12.4996 5.87162 12.7699V16.378H7.52027V12.7699C7.52027 12.4996 7.73649 12.2834 8.00676 12.2834C8.27703 12.2834 8.49324 12.4996 8.49324 12.7699V16.378H10.1351V12.7834C10.1351 11.601 9.17568 10.6348 7.98649 10.6348Z" fill="white"/>
<path d="M7.98653 3.64844C7.50004 3.64844 7.0541 3.8106 6.69599 4.08087C6.33788 3.8106 5.88518 3.64844 5.40545 3.64844C4.2095 3.64844 3.24329 4.61465 3.24329 5.80384V9.39168H4.89193V5.78357C4.89193 5.5133 5.10815 5.29709 5.37842 5.29709C5.64869 5.29709 5.86491 5.5133 5.86491 5.78357V9.39168H7.51356V5.78357C7.51356 5.5133 7.72977 5.29709 8.00004 5.29709C8.27031 5.29709 8.48653 5.5133 8.48653 5.78357V9.39168H10.1352V5.80384C10.1352 4.61465 9.17572 3.64844 7.98653 3.64844Z" fill="white"/>
</svg>
