<svg width="33" height="32" viewBox="0 0 33 32" fill="none" xmlns="http://www.w3.org/2000/svg">
<path d="M16.5 17C18.7091 17 20.5 15.2091 20.5 13C20.5 10.7909 18.7091 9 16.5 9C14.2909 9 12.5 10.7909 12.5 13C12.5 15.2091 14.2909 17 16.5 17Z" stroke="black" stroke-linecap="round" stroke-linejoin="round"/>
<path d="M26.5 13C26.5 22 16.5 29 16.5 29C16.5 29 6.5 22 6.5 13C6.5 10.3478 7.55357 7.8043 9.42893 5.92893C11.3043 4.05357 13.8478 3 16.5 3C19.1522 3 21.6957 4.05357 23.5711 5.92893C25.4464 7.8043 26.5 10.3478 26.5 13V13Z" stroke="black" stroke-linecap="round" stroke-linejoin="round"/>
</svg>
