<svg width="20" height="19" viewBox="0 0 20 19" fill="none" xmlns="http://www.w3.org/2000/svg">
<path d="M19.7407 17.8752C18.3412 15.4644 16.1012 13.655 13.45 12.7939C14.7208 12.0383 15.7083 10.8863 16.2609 9.51495C16.8134 8.14362 16.9005 6.62881 16.5086 5.20321C16.1168 3.77762 15.2677 2.5201 14.0919 1.62385C12.9161 0.727599 11.4785 0.242187 10 0.242188C8.52156 0.242187 7.08399 0.727599 5.90815 1.62385C4.73231 2.5201 3.88326 3.77762 3.49141 5.20321C3.09957 6.62881 3.18662 8.14362 3.73918 9.51495C4.29175 10.8863 5.27927 12.0383 6.55003 12.7939C3.89887 13.655 1.65884 15.4644 0.259404 17.8752C0.190696 17.9882 0.154358 18.1179 0.154358 18.2502C0.154358 18.3824 0.190696 18.5121 0.259404 18.6252C0.323507 18.7401 0.417437 18.8356 0.531287 18.9016C0.645138 18.9676 0.774689 19.0016 0.906279 19.0002H19.0938C19.2254 19.0016 19.3549 18.9676 19.4688 18.9016C19.5826 18.8356 19.6766 18.7401 19.7407 18.6252C19.8094 18.5121 19.8457 18.3824 19.8457 18.2502C19.8457 18.1179 19.8094 17.9882 19.7407 17.8752V17.8752Z" fill="#A2A2A3"/>
</svg>
