<svg width="24" height="24" viewBox="0 0 24 24" fill="none" xmlns="http://www.w3.org/2000/svg">
<path d="M9 16.5H2.8125C2.66332 16.5 2.52024 16.4407 2.41475 16.3352C2.30926 16.2298 2.25 16.0867 2.25 15.9375V9.75C2.25 7.95979 2.96116 6.2429 4.22703 4.97703C5.4929 3.71116 7.20979 3 9 3V3C10.7902 3 12.5071 3.71116 13.773 4.97703C15.0388 6.2429 15.75 7.95979 15.75 9.75V9.75C15.75 11.5402 15.0388 13.2571 13.773 14.523C12.5071 15.7888 10.7902 16.5 9 16.5V16.5Z" stroke="black" stroke-linecap="round" stroke-linejoin="round"/>
<path d="M8.6344 16.5004C9.09978 17.8167 9.96188 18.9563 11.1019 19.7622C12.242 20.5681 13.6039 21.0007 15 21.0004H21.1875C21.3367 21.0004 21.4798 20.9411 21.5853 20.8356C21.6908 20.7301 21.75 20.5871 21.75 20.4379V14.2504C21.7524 12.5227 21.0914 10.8601 19.9033 9.60571C18.7153 8.35136 17.0909 7.60107 15.3656 7.50977" stroke="black" stroke-linecap="round" stroke-linejoin="round"/>
</svg>
