<svg width="14" height="22" viewBox="0 0 14 22" fill="none" xmlns="http://www.w3.org/2000/svg">
<path d="M11.5 0.5H2.5C1.90402 0.502468 1.33316 0.740313 0.911736 1.16174C0.490313 1.58316 0.252468 2.15402 0.25 2.75V19.25C0.252468 19.846 0.490313 20.4168 0.911736 20.8383C1.33316 21.2597 1.90402 21.4975 2.5 21.5H11.5C12.096 21.4975 12.6668 21.2597 13.0883 20.8383C13.5097 20.4168 13.7475 19.846 13.75 19.25V2.75C13.7475 2.15402 13.5097 1.58316 13.0883 1.16174C12.6668 0.740313 12.096 0.502468 11.5 0.5V0.5ZM10 5H4C3.80109 5 3.61032 4.92098 3.46967 4.78033C3.32902 4.63968 3.25 4.44891 3.25 4.25C3.25 4.05109 3.32902 3.86032 3.46967 3.71967C3.61032 3.57902 3.80109 3.5 4 3.5H10C10.1989 3.5 10.3897 3.57902 10.5303 3.71967C10.671 3.86032 10.75 4.05109 10.75 4.25C10.75 4.44891 10.671 4.63968 10.5303 4.78033C10.3897 4.92098 10.1989 5 10 5Z" fill="#A2A2A3"/>
</svg>
