<svg width="33" height="32" viewBox="0 0 33 32" fill="none" xmlns="http://www.w3.org/2000/svg">
<path d="M12.5 7V25" stroke="black" stroke-linecap="round" stroke-linejoin="round"/>
<path d="M3.50002 20.9C3.49874 20.6697 3.578 20.4462 3.72409 20.2682C3.87018 20.0901 4.0739 19.9687 4.30002 19.925C5.19941 19.734 6.00594 19.24 6.58465 18.5255C7.16336 17.811 7.47913 16.9194 7.47913 16C7.47913 15.0806 7.16336 14.189 6.58465 13.4745C6.00594 12.76 5.19941 12.266 4.30002 12.075C4.0739 12.0313 3.87018 11.9099 3.72409 11.7318C3.578 11.5538 3.49874 11.3303 3.50002 11.1V8C3.50002 7.73478 3.60537 7.48043 3.79291 7.29289C3.98044 7.10536 4.2348 7 4.50002 7H28.5C28.7652 7 29.0196 7.10536 29.2071 7.29289C29.3947 7.48043 29.5 7.73478 29.5 8V11.1C29.5013 11.3303 29.422 11.5538 29.2759 11.7318C29.1299 11.9099 28.9261 12.0313 28.7 12.075C27.8006 12.266 26.9941 12.76 26.4154 13.4745C25.8367 14.189 25.5209 15.0806 25.5209 16C25.5209 16.9194 25.8367 17.811 26.4154 18.5255C26.9941 19.24 27.8006 19.734 28.7 19.925C28.9261 19.9687 29.1299 20.0901 29.2759 20.2682C29.422 20.4462 29.5013 20.6697 29.5 20.9V24C29.5 24.2652 29.3947 24.5196 29.2071 24.7071C29.0196 24.8946 28.7652 25 28.5 25H4.50002C4.2348 25 3.98044 24.8946 3.79291 24.7071C3.60537 24.5196 3.50002 24.2652 3.50002 24V20.9Z" stroke="black" stroke-linecap="round" stroke-linejoin="round"/>
</svg>
