<svg width="33" height="32" viewBox="0 0 33 32" fill="none" xmlns="http://www.w3.org/2000/svg">
<path d="M26.6875 10.0503L22.4875 14.0003L26.4875 25.0003L23.4875 28.0003L17.5125 19.2503L14.4875 22.0003V25.0003L11.4875 28.0003L9.71255 22.7628L4.48755 21.0003L7.48755 18.0003H10.4875L13.4875 15.0003L4.48755 9.00032L7.48755 6.00032L18.4875 10.0003L22.4501 5.81282L22.3625 5.87532C22.9261 5.31174 23.6905 4.99512 24.4875 4.99512C25.2846 4.99512 26.049 5.31174 26.6125 5.87532C27.1761 6.43891 27.4928 7.20329 27.4928 8.00032C27.4928 8.79735 27.1761 9.56174 26.6125 10.1253L26.6875 10.0503Z" stroke="black" stroke-linecap="round" stroke-linejoin="round"/>
</svg>
